<svg xmlns="http://www.w3.org/2000/svg" viewBox="0 0 512 512" width="512" height="512">
  <!-- Background circle -->
  <circle cx="256" cy="256" r="256" fill="#1E3A8A"/>
  
  <!-- Book pages (light blue background) -->
  <path d="M 128 128 Q 140 120 256 120 Q 372 120 384 128 L 384 384 Q 372 376 256 376 Q 140 376 128 384 Z" fill="#DBEAFE"/>
  
  <!-- Center binding -->
  <rect x="252" y="120" width="8" height="264" fill="#1E3A8A"/>
  
  <!-- Left page lines -->
  <line x1="160" y1="160" x2="240" y2="160" stroke="#3B82F6" stroke-width="8" stroke-linecap="round"/>
  <line x1="160" y1="200" x2="240" y2="200" stroke="#3B82F6" stroke-width="8" stroke-linecap="round"/>
  <line x1="160" y1="240" x2="240" y2="240" stroke="#3B82F6" stroke-width="8" stroke-linecap="round"/>
  <line x1="160" y1="280" x2="240" y2="280" stroke="#3B82F6" stroke-width="8" stroke-linecap="round"/>
  <line x1="160" y1="320" x2="240" y2="320" stroke="#3B82F6" stroke-width="8" stroke-linecap="round"/>
  
  <!-- Right page lines -->
  <line x1="272" y1="160" x2="352" y2="160" stroke="#3B82F6" stroke-width="8" stroke-linecap="round"/>
  <line x1="272" y1="200" x2="352" y2="200" stroke="#3B82F6" stroke-width="8" stroke-linecap="round"/>
  <line x1="272" y1="240" x2="352" y2="240" stroke="#3B82F6" stroke-width="8" stroke-linecap="round"/>
  <line x1="272" y1="280" x2="352" y2="280" stroke="#3B82F6" stroke-width="8" stroke-linecap="round"/>
  <line x1="272" y1="320" x2="352" y2="320" stroke="#3B82F6" stroke-width="8" stroke-linecap="round"/>
  
  <!-- Book cover outline -->
  <path d="M 100 100 Q 120 90 256 90 Q 392 90 412 100 L 412 400 Q 392 390 256 390 Q 120 390 100 400 Z" 
        fill="none" stroke="#1E3A8A" stroke-width="12"/>
  
  <!-- Bottom book edge -->
  <ellipse cx="256" cy="400" rx="156" ry="20" fill="#1E3A8A"/>
</svg>
